<svg width="36" height="24" viewBox="0 0 36 24" fill="none" xmlns="http://www.w3.org/2000/svg">
<path d="M7.42906 3.42857H1.72942C1.07449 3.42857 0.419563 3.97714 0.508066 4.86857L3.26938 21.9943C3.26938 21.9943 6.54402 9.37714 7.18125 6.34286C7.37596 5.43429 8.26099 5.14286 8.91592 5.14286H18.0495C18.0495 5.14286 16.8105 1.57714 16.6866 1.18286C16.4741 0.428572 16.0847 0 15.3059 0H9.44694C8.80972 0 8.20789 0.394286 8.03089 1.09714C7.87158 1.78286 7.42906 3.42857 7.42906 3.42857ZM16.067 3.42857H8.98673C8.98673 3.42857 9.73016 1.71429 10.5267 1.71429H14.297C15.1466 1.71429 16.067 3.42857 16.067 3.42857ZM5.07486 22.7143C4.52614 23.52 3.7296 24 2.84457 24H30.6878C31.6437 24 32.3163 23.4686 32.511 22.5771C33.2899 18.8229 35.4847 8.10857 35.4847 8.10857C35.6087 7.25143 34.9537 6.85714 34.3873 6.85714H28.67V4.33714C28.67 4.06286 28.2097 3.42857 27.5017 3.42857H20.8462C19.9258 3.42857 19.3063 4.42286 19.3063 4.42286L18.0495 6.85714H10.2435C9.67705 6.85714 9.12833 7.18286 9.02213 7.71429C9.02213 7.71429 6.20771 19.2 5.9776 20.28C5.85369 20.9143 5.58818 21.9771 5.07486 22.7143ZM27.5725 6.85714H19.8196C19.8196 6.85714 20.8462 5.14286 21.8198 5.14286H25.8732C27.13 5.14286 27.5725 6.85714 27.5725 6.85714Z" fill="black"/>
</svg>
